<svg width="20" height="20" viewBox="0 0 20 20" fill="none" xmlns="http://www.w3.org/2000/svg">
<path fill-rule="evenodd" clip-rule="evenodd" d="M18 10C18 13.866 14.418 17 10 17C8.70576 17.0054 7.42769 16.7267 6.2555 16.1852C6.03509 16.0834 5.78712 16.0525 5.55158 16.1114L3.9559 16.5107C3.15362 16.7114 2.46831 15.9069 2.794 15.1467L3.10846 14.4128C3.25032 14.0817 3.19805 13.7029 3.00478 13.399C2.36485 12.3925 2 11.2336 2 10C2 6.134 5.582 3 10 3C14.418 3 18 6.134 18 10ZM7 10C7 9.44772 6.55228 9 6 9V9C5.44772 9 5 9.44772 5 10V10C5 10.5523 5.44772 11 6 11V11C6.55228 11 7 10.5523 7 10V10ZM15 10C15 9.44772 14.5523 9 14 9V9C13.4477 9 13 9.44772 13 10V10C13 10.5523 13.4477 11 14 11V11C14.5523 11 15 10.5523 15 10V10ZM9 10C9 9.44772 9.44772 9 10 9V9C10.5523 9 11 9.44772 11 10V10C11 10.5523 10.5523 11 10 11V11C9.44772 11 9 10.5523 9 10V10Z" fill="#4B5563"/>
</svg>
