<svg width="20" height="20" viewBox="0 0 20 20" fill="none" xmlns="http://www.w3.org/2000/svg">
<path d="M4.27546 17.5927L2.66671 6.33333H17.3334L15.7246 17.5927C15.6622 18.0296 15.4442 18.4293 15.1108 18.7184C14.7774 19.0075 14.3509 19.1667 13.9096 19.1667H6.09046C5.64915 19.1667 5.22264 19.0075 4.88924 18.7184C4.55583 18.4293 4.3379 18.0296 4.27546 17.5927ZM18.25 2.66667H13.6667V1.75C13.6667 1.50688 13.5701 1.27373 13.3982 1.10182C13.2263 0.929909 12.9932 0.833332 12.75 0.833332H7.25004C7.00693 0.833332 6.77377 0.929909 6.60186 1.10182C6.42995 1.27373 6.33337 1.50688 6.33337 1.75V2.66667H1.75004C1.50693 2.66667 1.27377 2.76324 1.10186 2.93515C0.929951 3.10706 0.833374 3.34022 0.833374 3.58333C0.833374 3.82645 0.929951 4.0596 1.10186 4.23151C1.27377 4.40342 1.50693 4.5 1.75004 4.5H18.25C18.4932 4.5 18.7263 4.40342 18.8982 4.23151C19.0701 4.0596 19.1667 3.82645 19.1667 3.58333C19.1667 3.34022 19.0701 3.10706 18.8982 2.93515C18.7263 2.76324 18.4932 2.66667 18.25 2.66667Z" fill="#F6F4F4"/>
</svg>
