<svg width="16" height="16" viewBox="0 0 16 16" fill="none" xmlns="http://www.w3.org/2000/svg">
<g opacity="0.6">
<path d="M10.8688 2.8688C11.0164 2.71599 11.1929 2.59409 11.3882 2.51024C11.5834 2.42638 11.7933 2.38225 12.0058 2.3804C12.2182 2.37855 12.4289 2.41904 12.6255 2.49949C12.8222 2.57994 13.0008 2.69874 13.151 2.84897C13.3013 2.9992 13.4201 3.17784 13.5005 3.37448C13.581 3.57111 13.6214 3.7818 13.6196 3.99424C13.6178 4.20669 13.5736 4.41664 13.4898 4.61185C13.4059 4.80706 13.284 4.98361 13.1312 5.1312L12.4968 5.7656L10.2344 3.5032L10.8688 2.8688ZM9.1032 4.6344L2.4 11.3376V13.6H4.6624L11.3664 6.8968L9.1032 4.6344Z" fill="black"/>
</g>
</svg>
