<svg width="17" height="17" viewBox="0 0 17 17" fill="none" xmlns="http://www.w3.org/2000/svg">
<path fill-rule="evenodd" clip-rule="evenodd" d="M9.61136 15.0332C9.59736 15.0332 9.58403 15.0326 9.5707 15.0319C9.26936 15.0139 9.01803 14.7953 8.95803 14.4993L7.9327 9.45458C7.87936 9.19192 7.6747 8.98725 7.41203 8.93392L2.36736 7.90792C2.07136 7.84858 1.8527 7.59725 1.8347 7.29592C1.8167 6.99392 2.0027 6.71792 2.28936 6.62325L12.956 3.06792C13.1954 2.98658 13.4594 3.04925 13.638 3.22858C13.8167 3.40725 13.8787 3.67125 13.7994 3.91058L10.2434 14.5772C10.1527 14.8512 9.8967 15.0332 9.61136 15.0332" fill="black"/>
<mask id="mask0_1_54" style="mask-type:luminance" maskUnits="userSpaceOnUse" x="1" y="3" width="13" height="13">
<path fill-rule="evenodd" clip-rule="evenodd" d="M9.61136 15.0332C9.59736 15.0332 9.58403 15.0326 9.5707 15.0319C9.26936 15.0139 9.01803 14.7952 8.95803 14.4993L7.9327 9.45458C7.87936 9.19192 7.6747 8.98725 7.41203 8.93392L2.36736 7.90792C2.07136 7.84858 1.8527 7.59725 1.8347 7.29592C1.8167 6.99392 2.0027 6.71792 2.28936 6.62325L12.956 3.06792C13.1954 2.98658 13.4594 3.04925 13.638 3.22858C13.8167 3.40725 13.8787 3.67125 13.7994 3.91058L10.2434 14.5772C10.1527 14.8512 9.8967 15.0332 9.61136 15.0332Z" fill="white"/>
</mask>
<g mask="url(#mask0_1_54)">
<rect x="0.5" y="0.366585" width="16" height="16" fill="black"/>
</g>
</svg>
